PathFileType	4	(X/Y/Z)	Patient4_TMGait_0pt4_03_right_30.trc.trc
DataRate	CameraRate	NumFrames	NumMarkers	Units	OrigDataRate	OrigDataStartFrame	OrigNumFrames
76.086956521739	76.086956521739	4	33	mm	76.086956521739	89	       141
Frame#	Time	Sacral			L.Shoulder			Chest			R.Shoulder			Neck			R.ASIS			L.ASIS			R.Thigh.Superior			R.Thigh.Lateral			R.Thigh.Inferior			R.Patella			L.Thigh.Superior			L.Thigh.Lateral			L.Thigh.Inferior			L.Patella			L.Shank.Superior			L.Shank.Lateral			L.Shank.Inferior			R.Shank.Superior			R.Shank.Lateral			R.Shank.Inferior			R.Heel			R.Midfoot.Superior			R.Midfoot.Lateral			R.Toe			L.Heel			L.Midfoot.Lateral			L.Midfoot.Superior			L.Toe			L.Elbow			L.Wrist			R.Elbow			R.Wrist			
		X1	Y1	Z1	X2	Y2	Z2	X3	Y3	Z3	X4	Y4	Z4	X5	Y5	Z5	X6	Y6	Z6	X7	Y7	Z7	X8	Y8	Z8	X9	Y9	Z9	X10	Y10	Z10	X11	Y11	Z11	X12	Y12	Z12	X13	Y13	Z13	X14	Y14	Z14	X15	Y15	Z15	X16	Y16	Z16	X17	Y17	Z17	X18	Y18	Z18	X19	Y19	Z19	X20	Y20	Z20	X21	Y21	Z21	X22	Y22	Z22	X23	Y23	Z23	X24	Y24	Z24	X25	Y25	Z25	X26	Y26	Z26	X27	Y27	Z27	X28	Y28	Z28	X29	Y29	Z29	X30	Y30	Z30	X31	Y31	Z31	X32	Y32	Z32	X33	Y33	Z33	

89	40.066571428571	858.583737453597	1000.941265680112	442.517877251298	1003.387252951823	1420.791622602661	225.718459990911	1129.784758441697	1362.392360105057	373.410352670776	1071.064617129894	1443.553106590307	554.137088978619	1009.204719525882	1491.094103193161	378.222504496222	1096.268221609259	937.104441707071	534.676070197609	1057.210395269062	958.375447105313	263.739434062895	1136.107696486800	733.764271188631	508.840601538929	1064.881396583709	622.922681758564	581.780701283700	1138.850196068160	565.923104184880	500.640056518198	1134.674786333655	459.020109803474	521.733523614753	1127.348238249378	759.844657633939	286.791397740705	1048.623933695274	635.845526573839	231.107527772622	1146.505947889676	567.671480099748	285.043319415563	1154.380619829315	497.630668820674	292.429804584552	1129.888513664396	422.821440752409	285.324318461382	1041.492064681262	305.511578782620	238.218276297667	1102.560764921385	195.599565925358	303.901825420470	1062.734059616709	388.433963412835	532.929898380904	950.448911908940	339.212427037091	602.821826651826	939.217845476629	230.653432556654	551.220605646371	742.203136119254	142.083398169270	535.115518378293	918.018886619902	117.102725541309	569.846972693506	813.735814789091	99.009154197124	608.390294389848	1003.527272865697	33.382639363659	599.240655835789	982.507881876361	38.248408555766	350.878958616979	1052.038247041896	35.226169811596	266.284142248898	1135.584856999199	97.295827428755	289.729432843416	1262.783455500368	48.518537790664	254.329530100004	961.185456299275	1066.640959459578	119.730745292947	1048.577207564126	819.811331912211	98.525937399173	1126.666646743637	1099.776805491629	671.900429178608	1330.001183214039	984.898018024627	566.978138910655	
90	40.079714285714	857.822721552774	1001.034284642134	439.600986735601	1004.262693388316	1420.969324370419	222.907357517801	1129.431204753571	1362.787830867711	371.714016743430	1069.211102957594	1443.984178991122	551.954677220139	1008.836088235292	1491.424268222028	375.452763461242	1095.126029363612	937.536283228538	532.989661070562	1057.389508389730	958.874894482761	261.959966467047	1140.454120172522	736.767021205025	507.086900305648	1072.168663668484	624.313339395090	580.052228975389	1148.260713589812	568.805599376907	499.399044828591	1145.554075011389	460.859737573652	520.698703436629	1125.944981654202	759.099886512174	284.959557408594	1046.461044070448	635.891406077824	229.356663640084	1143.312906483438	566.947702378942	283.965164278118	1150.497758311747	497.014062803561	291.541154648479	1125.902908148837	422.327914452552	284.467162464894	1037.397118002750	305.150708711641	237.359516136706	1097.754552289088	195.265840323686	303.620675801674	1072.051362916147	390.594144762186	531.806919198302	958.187670863286	344.865707671280	601.615658308715	944.299017440047	236.316436943303	550.797765315356	744.907127514037	155.753908396288	534.824988702778	919.416537647196	121.703443122386	569.454251302892	814.105248713641	108.982095408960	608.073199998032	1000.026986865608	32.743079527143	598.873592050780	977.176474747348	38.213379093789	350.835595403006	1046.684981845827	35.143114847521	266.227322683575	1130.303787598043	97.076664424878	289.710379207427	1257.503865295007	48.142305766482	254.270472646689	968.677644627722	1066.684563420388	114.653967821277	1063.549534506214	822.599246848086	92.524325865896	1118.951317286102	1098.968070679199	670.024919579168	1317.364386562093	969.146539807436	571.732354700891	
91	40.092857142857	856.962963815252	1001.113862315478	436.769979857937	1005.169913812076	1421.185511836166	220.329104471059	1129.048370990917	1363.167654092916	370.270941361695	1067.262559732816	1444.305331098994	550.037961909019	1008.472558881171	1491.752227076658	372.946603309626	1093.930361648148	937.991710472174	531.392537025417	1057.477385359104	959.373099499511	260.252739621065	1144.527217282641	739.982791884637	505.395758762750	1079.212586793786	626.049359278151	578.498637963921	1157.297444228470	572.084676840154	498.317244317020	1156.166069872834	463.215276015066	519.714033008748	1124.524680534517	758.407273770681	283.268008932169	1044.273518989186	635.942560220493	227.663860814003	1140.103919559429	566.241813882828	282.947772840787	1146.597507891409	496.415093244541	290.717708025440	1121.916111743572	421.858431767033	283.666593349802	1033.326925844656	304.811664776448	236.518372452061	1092.967717842338	194.949864753089	303.356770689757	1081.318820625640	393.138755496635	530.749867709339	966.127700129537	350.615398753705	600.520073279690	949.774403418001	242.153773886037	550.410316707707	748.479104809239	169.134204737192	534.673278534602	921.502770155819	126.651694326958	569.035862081610	815.413595692628	118.888778349740	607.769366392753	997.397912612180	32.317707076120	598.261659302078	971.858296399489	38.186874751916	350.786275060897	1041.350778515399	35.078883926040	266.167615658914	1125.043215498158	96.875918924516	289.694458310314	1252.242118797864	47.768288067925	254.217697877113	976.182797300749	1066.948932813931	109.803312975980	1078.508989062754	825.854764516231	86.786291161959	1110.877868801954	1098.073373002430	668.356451246660	1303.569565572867	953.663239357259	577.542988773003	
92	40.106000000000	856.018246868538	1001.223087116668	434.007442618014	1006.093034386761	1421.477031886736	217.997436577644	1128.642120745819	1363.564517587446	369.072488633680	1065.247976386610	1444.550487420991	548.380462531519	1008.121434964063	1492.105603245093	370.715535287119	1092.699441919272	938.523348588090	529.879355863847	1057.506395071397	959.885686768815	258.609072516493	1148.229306840599	743.383112796854	503.750674738284	1085.901837966095	628.135222091990	577.124926315048	1165.818060461738	575.740217911736	497.375181776584	1166.396921771879	466.064454025640	518.818896359554	1123.133689898391	757.771134732694	281.676669227289	1042.045859276806	635.994659671740	226.064655728950	1136.886719628425	565.548801340569	281.979761721556	1142.694625046708	495.839998126524	289.977365893052	1117.937178784305	421.421985675633	282.936769853706	1029.278280191659	304.510713553108	235.718615440494	1088.201359328863	194.659526078276	303.116858523554	1090.440425527653	396.043063060816	529.805165048129	974.171506378619	356.336892663170	599.569813065106	955.638806879099	248.005942378056	550.094648742511	752.912049761609	181.753967039432	534.713053421689	924.412522597947	131.767021213512	568.635061598233	817.778355854015	128.323863910466	607.496965633642	995.955855707148	32.188024136475	597.355880920840	966.555331982131	38.169954425300	350.729420773975	1036.038992942819	35.035495297505	266.104582587303	1119.801429774820	96.701564413050	289.680687846066	1246.997577220567	47.418012016658	254.169860370356	983.652820155928	1067.463457138338	105.198497993888	1093.415822165472	829.621875349641	81.339481851492	1102.505341432101	1097.181001687312	666.945341585293	1288.646212799480	938.695581771264	584.321789666348	
